<svg xmlns="http://www.w3.org/2000/svg" width="140" height="99" class="js-change-svg rs-main-logo replaced-svg" viewBox="0 0 139 99"><path d="M85.54 68c-.63.25-1.2.625-1.677 1.105-.492.5-.879 1.09-1.144 1.739a5.773 5.773 0 0 0-.426 2.27c0 .648.086 1.292.25 1.921.16.64.375 1.262.644 1.86h5.657a5.852 5.852 0 0 1-.254 1.765 2.28 2.28 0 0 1-.64 1.016c-.29.238-.634.402-1 .472a7.245 7.245 0 0 1-1.333.114c-.207 0-.445-.012-.715-.032-.25-.02-.5-.062-.738-.136-.039.183-.086.367-.148.543.437.258.91.449 1.406.566a6.381 6.381 0 0 0 1.61.207c.448-.004.89-.07 1.32-.2a3.517 3.517 0 0 0 1.289-.687 3.915 3.915 0 0 0 1-1.335 5.502 5.502 0 0 0 .445-2.165c.016-.253.023-.511.031-.773.008-.266.012-.54.012-.816v-7.82H87.53c-.683 0-1.363.128-1.996.386m3.266 7.266h-3.66a5.557 5.557 0 0 1-.418-1.286 6.79 6.79 0 0 1-.125-1.285 4.021 4.021 0 0 1 .293-1.632c.164-.391.406-.747.707-1.047.257-.25.566-.442.902-.563a2.64 2.64 0 0 1 .883-.168H88.8ZM70.3 63.945l-1.843 2.227h3.695ZM76.574 66.172l-1.847-2.227-1.852 2.227ZM22.3 63.945l-1.85 2.227h3.698ZM72.512 61.348l-1.844 2.226h3.695ZM77.594 67.61v7.652l-1.809-.02a2.088 2.088 0 0 1-.957-.222 1.514 1.514 0 0 1-.621-.563 2.62 2.62 0 0 1-.332-.86 4.997 4.997 0 0 1-.105-1.077v-3.575h-2.332v4.871a2.05 2.05 0 0 1-.208 1.098.898.898 0 0 1-.789.324h-1.039a2.088 2.088 0 0 1-.957-.222 1.524 1.524 0 0 1-.625-.563 2.62 2.62 0 0 1-.332-.86 5.256 5.256 0 0 1-.105-1.077V70.28h-2.309v3.531c.035.38-.039.762-.207 1.098a.931.931 0 0 1-.808.328H45.613a2.17 2.17 0 0 1-.968-.175 1.612 1.612 0 0 1-.622-.547 2.34 2.34 0 0 1-.343-.836 4.995 4.995 0 0 1-.106-1.051v-5.024h-2.328v6.247a3.04 3.04 0 0 1-.086.816.746.746 0 0 1-.27.418.942.942 0 0 1-.476.152c-.195.012-40.394.02-40.394.02v1.629h40.52c.444.011.894-.047 1.32-.172.324-.098.628-.266.882-.488.238-.207.418-.47.531-.762.122-.313.204-.645.239-.98a3.38 3.38 0 0 0 .875 1.726c.363.367.84.598 1.351.652.082.02.164.028.25.028h18.38c.445.007.886-.051 1.312-.18.328-.098.629-.27.882-.5.231-.219.41-.48.532-.773a3.8 3.8 0 0 0 .25-1.012c.113.66.414 1.27.863 1.765.457.477 1.098.73 1.758.7h.789a2.91 2.91 0 0 0 2.183-.68 3.105 3.105 0 0 0 .79-1.785c.113.66.41 1.27.863 1.765a2.28 2.28 0 0 0 1.754.7h3.597v-9.286H77.59ZM99.988 75.266a1.756 1.756 0 0 1-1.558-.743 3.53 3.53 0 0 1-.457-1.957V67.61H95.62v8.805a9.744 9.744 0 0 1-.164 1.965c-.078.422-.246.82-.492 1.172-.195.265-.473.46-.79.562a3.688 3.688 0 0 1-1.09.149c-.167 0-.366-.012-.593-.032a2.723 2.723 0 0 1-.637-.136 3.273 3.273 0 0 1-.144.543c.379.246.789.437 1.219.566.43.137.886.207 1.34.207a3.42 3.42 0 0 0 1.496-.324 2.993 2.993 0 0 0 1.171-1.012c.36-.535.618-1.129.762-1.758.196-.836.285-1.691.27-2.55V74.43c.101.66.398 1.277.855 1.765.344.36.797.594 1.29.664.152.02.304.032.456.036h38.41v-1.633H99.988Zm0 0" style="stroke:none;fill-rule:nonzero;fill:#405378;fill-opacity:1"/><path d="m61.762 15.477 1.355-1.364 1.36 1.364-1.36 1.367ZM49.219 15.477l1.36-1.364 1.355 1.364-1.356 1.367ZM49.219 2.266l1.36-1.368 1.358 1.368-1.359 1.367ZM49.219 28.168l1.36-1.363 1.358 1.363-1.359 1.367ZM61.797 40.719l1.355-1.367 1.36 1.367-1.36 1.363ZM49.223 40.715l1.355-1.367 1.36 1.367-1.36 1.367Zm0 0" style="stroke:none;fill-rule:nonzero;fill:#b167a1;fill-opacity:1"/><path d="M117.395 8.344a1.098 1.098 0 0 0-.34-.07c-.586 0-1.059.476-1.059 1.066a1.061 1.061 0 1 0 2.121 0 1.104 1.104 0 0 0-.07-.352l5.988-6.023a.704.704 0 0 0 .149.062c.191.04.394.016.574-.058l5.957 5.988a1.061 1.061 0 0 0 .984 1.45c.586 0 1.059-.477 1.059-1.067s-.473-1.067-1.059-1.067c-.105.004-.21.028-.308.063l-5.996-6.027c.02-.032.03-.067.046-.102a1.07 1.07 0 0 0-.82-1.266 1.064 1.064 0 0 0-1.258.825c-.031.18-.015.359.043.53ZM129.68 3.055c.132 0 .265-.028.39-.078l5.953 5.984a1.055 1.055 0 0 0 .985 1.445c.586 0 1.058-.476 1.058-1.066 0-.59-.472-1.067-1.058-1.067a1.17 1.17 0 0 0-.309.063l-6.02-6.05a1.11 1.11 0 0 0 .06-.302 1.061 1.061 0 1 0-2.122 0c0 .59.473 1.067 1.063 1.067ZM123.035 12.863l1.36-1.367 1.355 1.367-1.355 1.364Zm0 0" style="stroke:none;fill-rule:nonzero;fill:#cf3d28;fill-opacity:1"/><path d="M7.48 34.238a.458.458 0 0 0 .372-.308c.355-.793.773-1.555 1.253-2.282.86.118 1.7.36 2.489.723a.46.46 0 0 0 .48-.047.47.47 0 0 0 .047-.484 15.89 15.89 0 0 1-.719-2.5 8.763 8.763 0 0 1 2.266-1.258.379.379 0 0 0 .3-.445.374.374 0 0 0-.3-.301c-.79-.36-1.547-.781-2.266-1.262a8.734 8.734 0 0 1 .72-2.5.47.47 0 0 0-.048-.484.463.463 0 0 0-.273-.094c-.074 0-.14.02-.207.047-.809.309-1.64.55-2.489.723a8.765 8.765 0 0 1-1.25-2.282.38.38 0 0 0-.746 0c-.3.82-.722 1.586-1.25 2.282a8.755 8.755 0 0 1-2.488-.723.55.55 0 0 0-.207-.047.483.483 0 0 0-.277.094.438.438 0 0 0-.043.484c.375.79.62 1.633.719 2.5a8.85 8.85 0 0 1-2.27 1.262.382.382 0 0 0-.3.445.374.374 0 0 0 .3.301c.816.305 1.578.73 2.27 1.258a7.558 7.558 0 0 1-.72 2.504.44.44 0 0 0 .044.48.46.46 0 0 0 .484.047c.809-.305 1.64-.547 2.488-.719a8.83 8.83 0 0 1 1.254 2.282.47.47 0 0 0 .371.308m-.945-3.105-.324-.43-.524.11c-.125.027-.906.19-1.671.421.195-.593.324-1.199.39-1.82l.043-.473-.379-.285a9.946 9.946 0 0 0-1.511-.953c.53-.27 1.039-.59 1.511-.95l.387-.292-.05-.48c-.075-.598-.2-1.192-.38-1.766.559.18 1.13.312 1.711.394l.496.067.301-.399c.36-.48.676-.988.945-1.523.27.535.586 1.043.946 1.523l.324.43.523-.11c.125-.027.926-.195 1.696-.43-.188.583-.328 1.18-.41 1.786l-.075.535.45.297c.105.07.789.52 1.5.902a9.954 9.954 0 0 0-1.547.97l-.43.323.11.532c.027.125.195.93.425 1.703a9.896 9.896 0 0 0-1.773-.41l-.532-.079-.296.454c-.07.105-.516.793-.895 1.507a10.115 10.115 0 0 0-.965-1.554" style="stroke:none;fill-rule:nonzero;fill:#604c8c;fill-opacity:1"/><path d="M9.563 22.973c2.792-.774 6.234-2.614 6.41-5.618a6.393 6.393 0 0 0-1.063-3.136c-.37-.707-.926-2.153-.926-2.153-.691.368-1.414.664-2.16.887a6.281 6.281 0 0 0-2.937 1.496c-1.965 2.274-.785 6.004.68 8.52m2.277-9.125.238-.078c.453-.149.953-.317 1.453-.532.192.461.43 1.008.63 1.383l.112.215a5.34 5.34 0 0 1 .852 2.473 4.148 4.148 0 0 1-1.887 3.011 11.4 11.4 0 0 1-3.265 1.641c-1.227-2.352-1.915-5.254-.45-6.95a5.191 5.191 0 0 1 2.317-1.163" style="stroke:none;fill-rule:nonzero;fill:#604c8c;fill-opacity:1"/><path d="M17.89 19.21c-.062 0-.124.005-.183.009-2.988.207-4.777 3.687-5.516 6.508a11.603 11.603 0 0 0 5.391 1.66 4.496 4.496 0 0 0 3.09-1.075 6.37 6.37 0 0 0 1.457-2.972c.234-.77.855-2.184.855-2.184a11.425 11.425 0 0 1-2.152-.906 6.84 6.84 0 0 0-2.941-1.04m3.425 3.88-.07.23a5.282 5.282 0 0 1-1.137 2.356c-.707.59-1.609.898-2.527.855a10.157 10.157 0 0 1-4.387-1.23c.79-2.535 2.34-5.074 4.567-5.235.043-.003.086-.003.129-.003a5.633 5.633 0 0 1 2.328.828l.226.12c.422.22.899.454 1.403.657-.188.46-.407 1.02-.532 1.422ZM11.137 12.387c.41-.047.699-.653.234-.875a125.26 125.26 0 0 1-3.89-1.973 117.094 117.094 0 0 1-3.891 1.973c-.461.222-.176.832.238.875 1.438.11 2.762.82 3.652 1.957a5.151 5.151 0 0 1 3.657-1.957m-6.094-.637c.863-.43 1.691-.86 2.437-1.25.72.375 1.56.809 2.442 1.25a5.968 5.968 0 0 0-2.442 1.336 5.929 5.929 0 0 0-2.437-1.336ZM11.371 43.988c.465-.222.18-.828-.234-.87a5.156 5.156 0 0 1-3.657-1.962 5.14 5.14 0 0 1-3.652 1.961c-.414.043-.7.649-.238.871 1.312.633 2.605 1.301 3.89 1.977 1.29-.68 2.582-1.344 3.891-1.977m-3.89-1.574a5.923 5.923 0 0 0 2.44 1.336c-.862.434-1.69.86-2.44 1.25-.72-.379-1.56-.813-2.438-1.25a5.885 5.885 0 0 0 2.437-1.336M15.79 41.227c-.224.289-.067.808.296.808a.492.492 0 0 0 .168-.031 128.2 128.2 0 0 1 4.11-1.453c.406-1.403.823-2.801 1.28-4.188.114-.343-.167-.55-.453-.55a.525.525 0 0 0-.336.117 5.212 5.212 0 0 1-3.398 1.32c-.18 0-.36-.008-.539-.031a5.221 5.221 0 0 1-1.129 4.008m2.031-3.137a5.853 5.853 0 0 0 2.649-.84c-.293.926-.559 1.82-.797 2.633-.766.262-1.66.566-2.586.902.453-.828.707-1.75.734-2.695ZM16.934 18.395c.261-.043.527-.063.793-.063a5.274 5.274 0 0 1 3.207 1.148c.09.067.199.102.312.098.297 0 .59-.223.453-.574a126.107 126.107 0 0 1-1.496-4.117 119.18 119.18 0 0 1-4.18-1.235.472.472 0 0 0-.148-.023c-.379 0-.52.543-.277.824a5.205 5.205 0 0 1 1.336 3.942m2.613-2.805c.265.765.582 1.66.93 2.586a5.832 5.832 0 0 0-2.688-.7 5.93 5.93 0 0 0-.875-2.652c.926.278 1.82.535 2.633.766M8.813 41.063a6.336 6.336 0 0 0 2.94 1.488c.759.242 2.161.883 2.161.883a11.65 11.65 0 0 1 .926-2.153 6.437 6.437 0 0 0 1.055-3.14c-.18-3-3.625-4.836-6.422-5.602-1.457 2.516-2.63 6.254-.66 8.523m6.234-2.87a5.294 5.294 0 0 1-.84 2.464l-.121.227c-.219.422-.461.898-.664 1.402a18.703 18.703 0 0 0-1.41-.547l-.235-.074A5.233 5.233 0 0 1 9.45 40.5a4.155 4.155 0 0 1-.754-3.477c.211-1.214.614-2.386 1.192-3.468 2.511.812 5.023 2.398 5.16 4.64ZM18.547 2.277 19.907.91l1.359 1.367-1.36 1.364Zm0 0" style="stroke:none;fill-rule:nonzero;fill:#604c8c;fill-opacity:1"/><path d="M23.941 0H.035v56h23.906ZM.93 14.508c.175-.367.36-.758.52-1.18.46.184 1.019.395 1.421.516l.234.066a5.233 5.233 0 0 1 2.356 1.11 4.168 4.168 0 0 1 .836 3.46 11.555 11.555 0 0 1-1.106 3.497A9.627 9.627 0 0 1 .93 19.582Zm0 8.832c.324.637.597 1.297.812 1.976-.27.141-.543.258-.812.375Zm0 12.437c.28-.297.593-.566.93-.804a11.314 11.314 0 0 1 3.32-1.516c1.14 2.395 1.722 5.316.199 6.957a5.206 5.206 0 0 1-2.356 1.082l-.246.07c-.457.13-.965.282-1.472.477a23.74 23.74 0 0 0-.375-.945Zm0-5.91c.285.13.57.258.855.414a12.8 12.8 0 0 1-.855 1.942Zm0 13.278c.668-.317 1.363-.57 2.078-.758A6.356 6.356 0 0 0 6 41c2.043-2.2 1-5.973-.371-8.543-1.7.371-3.3 1.105-4.695 2.152v-.699a13.018 13.018 0 0 0 1.933-4.055 14.56 14.56 0 0 0-1.933-.992V26.63c.625-.258 1.23-.555 1.816-.895a13.096 13.096 0 0 0-1.816-4.05v-.922a12.131 12.131 0 0 0 4.695 2.218c1.398-2.554 2.48-6.32.457-8.539a6.264 6.264 0 0 0-2.977-1.418c-.761-.222-2.16-.82-2.18-.828V.898h22.118V6.11l-2.785 2.797a.842.842 0 0 0-.66-.004l-6.352-6.39c.102-.157.16-.344.164-.535a1.061 1.061 0 1 0-2.121 0c0 .59.473 1.066 1.062 1.066l.122-.023 6.457 6.492c-.215.547.05 1.164.597 1.383.543.214 1.16-.051 1.375-.602.047-.125.074-.258.074-.39a1.018 1.018 0 0 0-.074-.36l2.14-2.152v26.547a12.523 12.523 0 0 1-.87-2.055 6.413 6.413 0 0 0-1.535-2.93 4.442 4.442 0 0 0-2.938-.984 11.293 11.293 0 0 0-5.523 1.82c.812 2.797 2.703 6.223 5.695 6.344.04 0 .074.004.11.004a6.628 6.628 0 0 0 2.992-1.125c.625-.348 1.832-.852 2.074-.95v14.516l-2.14-2.148a1.064 1.064 0 0 0-.977-1.441 1.064 1.064 0 0 0-.997 1.468l-6.523 6.563c-.02 0-.039-.012-.059-.012-.585 0-1.058.476-1.058 1.066.004.508.367.942.867 1.028H7.902c.5-.086.868-.52.871-1.028 0-.43-.253-.812-.644-.98v-3.266c.527-.254.754-.89.504-1.422a1.06 1.06 0 0 0-1.414-.504c-.528.254-.754.891-.504 1.422.11.223.289.403.512.508v3.309a1.044 1.044 0 0 0 .293 1.96H.93Zm21-9.536c-.457.203-.996.45-1.364.657l-.21.117c-.711.48-1.52.789-2.372.902h-.074a4.117 4.117 0 0 1-3.027-1.844 11.417 11.417 0 0 1-1.688-3.254 9.886 9.886 0 0 1 4.508-1.363 3.62 3.62 0 0 1 2.395.79c.586.652.996 1.448 1.195 2.304l.082.246c.156.453.336.953.555 1.45m-1.985 21.488 1.32-1.325-1.355-1.367-1.36 1.367 1.321 1.325h-7.32c.5-.086.863-.516.867-1.028a1.002 1.002 0 0 0-.195-.582l6.382-6.422c.211.09.454.086.66-.004l2.786 2.797v5.239Zm0 0" style="stroke:none;fill-rule:nonzero;fill:#604c8c;fill-opacity:1"/><path d="M7.223 2.934v3.218c-.348.176-.57.535-.575.93 0 .59.477 1.07 1.063 1.07s1.062-.476 1.062-1.066c0-.43-.253-.816-.644-.98V2.933c.527-.254.75-.891.5-1.422a1.057 1.057 0 0 0-1.414-.504 1.067 1.067 0 0 0 .008 1.926Zm0 0" style="stroke:none;fill-rule:nonzero;fill:#604c8c;fill-opacity:1"/><path d="M46.945 49.262V0H23.043v56h23.902Zm-.89 5.84h-.266l-1.137-5.172-.023-.117.113-.032 1.313-.308Zm-1.504-6.149-.93.223.207.937 1.094 4.989h-5.457l1.058-4.98.2-.938-.93-.215-1.414-.328-1.414.336-.93.218.203.938 1.09 4.969h-5.445l1.055-4.957.199-.942-.93-.215-6.074-1.398 1.305-6.13.199-.937-.93-.214-.512-.118-.12-.52-.22-.933-.933.207-.985.22v-4.173l4.825-1.07.117-.027.027.117.532 2.258.12.515.516.117 2.246.52.117.027-.023.117-1.305 6.13-.175.82.816.187 2.637.61.191.042.192-.042 2.632-.626.817-.195-.184-.82-1.34-6.121-.027-.114.117-.03 1.563-.368 1.562.36.117.027-.027.117-1.305 6.125-.172.824.813.188 2.637.61.191.042.195-.043 2.63-.625.816-.195-.184-.82-1.34-6.122-.027-.117.117-.023 1.688-.403V48.59l-1.508.355Zm-5.953 6.149h-.399l-1.129-5.149-.027-.117.117-.027 1.219-.293 1.223.285.117.023-.024.117Zm-14.66-15.063 1.167-.258.114-.027.027.117.121.516.121.52.516.116.512.118.117.027-.028.117-1.304 6.125-.176.824.816.188 6.075 1.398.117.028-.024.117-1.093 5.137h-7.078Zm4.636-9.586.934.203.21-.937.407-1.766-.414-1.762-.219-.933-.933.207-4.618 1.023v-4.652l4.61.992.933.203.215-.937.516-2.262 2.242-.531.93-.223-.203-.937-1.344-6.118 2.637-.625 2.632.61-1.304 6.125-.2.941.934.211 1.754.406 1.75-.414.93-.218-.203-.938L39.426 12l2.633-.625 2.636.61-1.304 6.128-.2.938.93.215 1.938.445v16.398l-1.887.45-.926.218.203.938 1.344 6.12-2.633.626-2.633-.61 1.305-6.128.2-.942-.93-.21-1.758-.407-1.754.414-.93.223.207.937 1.344 6.117-2.633.625-2.637-.609 1.305-6.125.2-.941-.93-.215-2.25-.516-.528-2.258-.218-.933-.934.203-4.64 1.031v-4.66l4.632.996Zm-4.637-1.871v-1.223l4.805-1.062.117-.027.028.117.367 1.57-.36 1.57-.023.118-.117-.028-4.813-1.035Zm22.118-9.746-1.746-.406-.118-.024.024-.117 1.305-6.129.175-.82-.812-.188-2.637-.609-.191-.047-.196.047-2.629.625-.816.191.18.825 1.343 6.117.024.117-.113.027-1.563.367-1.562-.359-.118-.027.024-.113 1.305-6.13.175-.82-.812-.187-2.637-.61-.191-.043-.196.043-2.628.625-.817.196.18.82 1.344 6.117.023.117-.113.028-2.246.535-.512.121-.121.52-.516 2.261-.027.114-.113-.024-4.79-1.031V16.8l.915.195.937.203.215-.937.117-.516.512-.121.93-.223-.204-.933-1.343-6.121 6.062-1.438.93-.223-.207-.937L31.742.902h5.39l-1.027 4.836-.199.942.93.21 1.414.329 1.414-.336.93-.219-.207-.941-1.059-4.82h5.387l-1.028 4.812-.199.937.934.215 1.633.38V18.84ZM25.188 8.527l1.34 6.121.027.114-.117.031-.512.121-.516.121-.117.52-.117.515-.028.117-.117-.027-1.093-.234V.898h6.933l1.102 5.032.027.117-.117.027-6.063 1.442-.816.191.183.824ZM38.004.898h.457l1.098 5.008.023.114-.113.03-1.223.29-1.223-.281-.113-.028.024-.117L38 .902Zm6.605 5.137-.113-.027.024-.117L45.582.898h.473v5.47Zm0 0" style="stroke:none;fill-rule:nonzero;fill:#ea685a;fill-opacity:1"/><path d="m32.71 32 .142.7.687.183.41.105.258.07.258-.054 2.613-.535.473-.098.258-.406.14-.219.13.227.237.422.461.12 2.582.68.254.07.262-.054.414-.082.695-.145.18-.687.11-.414.066-.258-.05-.262-.536-2.625-.098-.472-.402-.262-.219-.14.227-.13.418-.238.12-.469.677-2.593.066-.254-.05-.262-.087-.418-.14-.7-.688-.179-.41-.11-.254-.066-.262.051-2.613.535-.469.098-.258.406-.14.219-.129-.227-.234-.418-.465-.125-2.582-.675-.258-.07-.258.054-.418.086-.695.14-.176.692-.11.41-.066.258.055.262.531 2.629.094.472.406.262.215.14-.223.13-.418.238-.12.465-.676 2.593-.067.258.05.262.087.418Zm.75-.719.677-2.593.031-.122.105-.058.227-.13 1.223-.698-1.184-.762-.219-.14-.101-.067-.024-.121-.535-2.625-.012-.067.016-.066.11-.414.046-.176.176-.035.418-.086.066-.016.067.02 2.578.676.117.035.063.105.125.227.695 1.23.758-1.191.14-.219.067-.101.117-.028 2.613-.535.067-.012.066.016.586.156.035.18.082.418.016.066-.016.067-.676 2.594-.035.117-.105.062-.227.13-1.222.695 1.183.761.215.14.106.067.023.121.531 2.625.016.067-.02.066-.105.414-.047.176-.176.035-.418.082-.062.016-.067-.02-2.582-.675-.117-.036-.059-.105-.128-.227-.692-1.23-.762 1.187-.136.22-.07.105-.118.023-2.613.535-.066.012-.067-.016-.586-.156-.035-.176-.086-.422-.012-.066.016-.066Zm0 0" style="stroke:none;fill-rule:nonzero;fill:#ea685a;fill-opacity:1"/><path d="M46.05 56h23.903V0H46.051Zm10.677-27.535-5.872 5.902a1.096 1.096 0 0 0-.273-.054.982.982 0 0 0-.379.078l-3.258-3.278v-5.925l3.27-3.29a.75.75 0 0 0 .152.067c.168.031.344.02.508-.031l5.855 5.89a.846.846 0 0 0-.003.64m-9.782 22.872 3.395-3.414c.078.027.164.043.246.05.137 0 .273-.03.402-.081l5.887 5.922a1.082 1.082 0 0 0-.059.296c0 .442.274.836.684.993h-6.84l1.281-1.293-1.355-1.364-1.356 1.364 1.282 1.293h-3.567Zm22.117 3.766h-5.578a1.05 1.05 0 0 0 .696-.774c.035-.18.02-.36-.04-.531l4.919-4.945v6.246Zm-12.117-14.75 5.864-5.895a.83.83 0 0 0 .648.008l5.605 5.637v1.207L63.5 46.902a.971.971 0 0 0-.332-.07c-.133 0-.262.031-.383.078l-5.855-5.89c.02-.043.043-.09.058-.137a.985.985 0 0 0-.043-.531m0-25.192 5.84-5.875a.993.993 0 0 0 .336.07c.129 0 .262-.027.383-.078l5.559 5.59v1.246l-5.586 5.617a.804.804 0 0 0-.645-.003l-5.875-5.907a1.09 1.09 0 0 0 .063-.293 1.16 1.16 0 0 0-.075-.367M63.36.914a1.066 1.066 0 0 0-1.257.828c-.036.188-.016.383.054.563l-5.875 5.91a1.015 1.015 0 0 0-.34-.07c-.586 0-1.058.476-1.058 1.066a1.061 1.061 0 1 0 2.12 0 1.083 1.083 0 0 0-.07-.352l5.872-5.906c.039.02.078.035.117.05.18.032.367.017.539-.046l5.594 5.629v4.976l-4.942-4.968c.035-.098.055-.2.063-.305a1.064 1.064 0 0 0-1.067-1.062c-.582 0-1.054.476-1.058 1.062.004.121.031.238.074.352l-5.852 5.882a1.114 1.114 0 0 0-.32-.066 1.067 1.067 0 1 0 .39 2.055l5.805 5.836a1.055 1.055 0 0 0 .985 1.445c.586 0 1.058-.477 1.058-1.066a.99.99 0 0 0-.07-.352l4.934-4.957v21.375l-4.93-4.957c.05-.121.074-.25.078-.379a1.061 1.061 0 1 0-2.121 0c.004.117.027.238.07.348L56.31 39.68a.806.806 0 0 0-.145-.063 1.055 1.055 0 0 0-1.254.824c-.12.575.246 1.141.817 1.262.18.031.367.02.539-.047l5.898 5.934c-.035.097-.055.2-.062.305a1.061 1.061 0 1 0 2.121 0 1.063 1.063 0 0 0-.07-.352l4.906-4.934v4.93l-5.555 5.586c-.047-.027-.098-.047-.149-.066a1.02 1.02 0 0 0-.57.058l-5.808-5.84a1.055 1.055 0 0 0-.985-1.445c-.586 0-1.062.477-1.062 1.066 0 .59.472 1.067 1.058 1.067a1.17 1.17 0 0 0 .309-.063l5.848 5.88c-.02.03-.032.066-.047.1-.102.524.195 1.04.695 1.212h-4.547c.547-.203.824-.813.625-1.364a1.054 1.054 0 0 0-1.39-.617l-5.899-5.93a1.05 1.05 0 0 0 .055-.288c0-.59-.477-1.063-1.063-1.063a1.065 1.065 0 0 0-1.058 1.063c0 .152.035.3.093.433l-2.672 2.692V32.414l2.637 2.656c-.035.094-.05.196-.058.301a1.061 1.061 0 1 0 2.12.004c0-.145-.027-.285-.081-.418l5.789-5.816c.117.047.246.074.37.074.587 0 1.063-.477 1.063-1.067s-.476-1.066-1.062-1.066a1.038 1.038 0 0 0-.344.07l-5.824-5.859c.027-.05.047-.105.066-.164a1.059 1.059 0 1 0-2.074-.438c-.031.172-.02.352.035.516l-2.636 2.652V6.08l2.671 2.683a1.059 1.059 0 1 0 1.938.855 1.01 1.01 0 0 0 .09-.43.93.93 0 0 0-.059-.292l5.91-5.946c.043.024.086.04.133.055a1.063 1.063 0 0 0 1.258-.824 1.075 1.075 0 0 0-.82-1.266 1.064 1.064 0 0 0-1.258.824 1.1 1.1 0 0 0 .047.551l-5.88 5.91a1.04 1.04 0 0 0-.39-.078.821.821 0 0 0-.254.055L46.938 4.77V.898h22.117v6.383l-4.942-4.965a.847.847 0 0 0 .059-.136 1.065 1.065 0 0 0-.82-1.262" style="stroke:none;fill-rule:nonzero;fill:#b167a1;fill-opacity:1"/><path d="M69.059 56h23.906V0H69.059ZM92.07 2.23A26.92 26.92 0 0 0 88.254.898h3.816ZM87.13 9.082a32.205 32.205 0 0 0 3.36 2.242c.515.301 1.046.582 1.581.856v1.898a31.62 31.62 0 0 0-4.933 3.086c.34-2.687.336-5.398-.008-8.082Zm3.808 1.457a31.34 31.34 0 0 1-4.132-2.871l-.926-.762.195 1.184a31.15 31.15 0 0 1 .008 10.058l-.191 1.18.925-.758a30.617 30.617 0 0 1 5.254-3.449v3.684a27.562 27.562 0 0 0-7.433 6.543l-.711.902 1.129-.172a27.648 27.648 0 0 0 7.015-2.043v7.926a27.637 27.637 0 0 0-7.007-2.043l-1.133-.172.715.902a27.799 27.799 0 0 0 7.425 6.532v3.672a30.78 30.78 0 0 1-5.257-3.446l-.922-.754.191 1.18a31.16 31.16 0 0 1-.012 10.078l-.195 1.184.926-.758a31.061 31.061 0 0 1 5.265-3.457v3.672a27.766 27.766 0 0 0-7.414 6.52l-.02.027H77.2l-.023-.028a27.806 27.806 0 0 0-7.223-6.394V44.98c1.797.95 3.496 2.07 5.074 3.356l.922.758-.191-1.184c-.551-3.34-.551-6.742-.012-10.082l.195-1.18-.921.758a31.134 31.134 0 0 1-5.067 3.344v-3.7a27.634 27.634 0 0 0 7.234-6.405l.715-.903-1.132.172a27.635 27.635 0 0 0-6.817 1.965v-7.774c2.18.95 4.473 1.61 6.824 1.97l1.13.171-.712-.902a27.61 27.61 0 0 0-7.242-6.426v-3.7c1.793.95 3.488 2.071 5.063 3.352l.925.758-.195-1.183a31.236 31.236 0 0 1 .012-10.055l.191-1.184-.926.758a31.3 31.3 0 0 1-4.128 2.871c-.305.18-.625.336-.942.5V7.32A27.742 27.742 0 0 0 77.172.922l.023-.027h7.442l.023.027a27.705 27.705 0 0 0 7.41 6.523v3.688c-.382-.195-.765-.383-1.132-.598Zm1.133 9.309v3.199a26.834 26.834 0 0 1-5.953 1.926 26.76 26.76 0 0 1 5.953-5.125Zm0 13.097v3.157a26.772 26.772 0 0 1-5.941-5.082 26.943 26.943 0 0 1 5.941 1.925Zm-4.933 5.871a31.868 31.868 0 0 0 4.933 3.079v1.945a31.691 31.691 0 0 0-4.941 3.086c.348-2.692.348-5.418.008-8.11ZM92.07 49.63v3.148a26.837 26.837 0 0 1-5.93 1.922 26.85 26.85 0 0 1 5.93-5.07Zm-16.379 5.07a26.868 26.868 0 0 1-5.738-1.844v-3.101a26.877 26.877 0 0 1 5.738 4.941Zm-.988-7.773a31.865 31.865 0 0 0-4.75-2.98v-2.153a31.862 31.862 0 0 0 4.742-2.973 32.164 32.164 0 0 0 .008 8.106Zm-4.75-10.946v-3.109a26.83 26.83 0 0 1 5.75-1.848 26.7 26.7 0 0 1-5.75 4.957Zm0-12.851v-3.156a26.682 26.682 0 0 1 5.762 5.004 26.858 26.858 0 0 1-5.762-1.848Zm4.742-5.965a31.592 31.592 0 0 0-4.742-2.98v-2.106c.473-.242.938-.488 1.395-.75a32.136 32.136 0 0 0 3.351-2.246 31.98 31.98 0 0 0-.004 8.082ZM69.953 6.25V3.14a26.677 26.677 0 0 1 5.734-1.84 26.689 26.689 0 0 1-5.734 4.95Zm16.192-4.953a26.815 26.815 0 0 1 5.925 1.926v3.152a26.88 26.88 0 0 1-5.925-5.078ZM73.585.898a27.164 27.164 0 0 0-3.632 1.258V.898Zm-3.632 52.946c1.184.504 2.395.922 3.633 1.258h-3.633Zm18.297 1.258a26.506 26.506 0 0 0 3.82-1.336v1.336Zm-6.91-52.25-.422-1.082-.422 1.082a28.107 28.107 0 0 0-.984 3.003 27.96 27.96 0 0 0 .988 17.586l.418 1.067.422-1.067a27.96 27.96 0 0 0 .984-17.586 28.711 28.711 0 0 0-.984-3.003m-.422 19.12a27.077 27.077 0 0 1 0-17.64c.2.59.379 1.18.535 1.762a27.108 27.108 0 0 1-.535 15.879Zm0 9.52-.422 1.063a27.973 27.973 0 0 0-.988 17.59c.273 1.015.605 2.023.988 3.003l.418 1.086.422-1.086c.387-.98.715-1.984.988-3.003a27.974 27.974 0 0 0-.988-17.59Zm.535 18.418a29.862 29.862 0 0 1-.535 1.758 27.088 27.088 0 0 1 0-17.64 27.107 27.107 0 0 1 .535 15.878" style="stroke:none;fill-rule:nonzero;fill:#daa622;fill-opacity:1"/><path d="M92.066 56h23.903V0H92.066Zm21.98-30.89a12.764 12.764 0 0 1-7.085 2.476c.078-2.238.73-4.41 1.898-6.316a67.994 67.994 0 0 0 5.188 3.84m-7.992 2.48h-.004a12.88 12.88 0 0 1-10.328-5.774 25.058 25.058 0 0 1 4.484-9.164 61.042 61.042 0 0 0 3.906 4.336 62.73 62.73 0 0 0 4.04 3.696 13.897 13.897 0 0 0-2.098 6.906m2.09 7.824a62.224 62.224 0 0 0-4.004 3.684 62.795 62.795 0 0 0-3.922 4.375 25.075 25.075 0 0 1-4.5-9.196 12.885 12.885 0 0 1 10.332-5.78h.004c.074 2.452.797 4.839 2.09 6.917m-7.95-24.195a68.217 68.217 0 0 1-3.593-4.938c.46-.554.968-1.062 1.515-1.531a68.857 68.857 0 0 1 4.922 3.602 25.934 25.934 0 0 0-2.844 2.867ZM96.09 5.496a61.6 61.6 0 0 1-1.903-3.164 60.69 60.69 0 0 1 3.149 1.902c-.441.395-.86.813-1.246 1.258m3.527 6.434a25.953 25.953 0 0 0-4.547 8.793 12.963 12.963 0 0 1 .942-13.676 74.538 74.538 0 0 0 3.605 4.883M95.43 22.949a13.825 13.825 0 0 0 7.507 5.094 13.807 13.807 0 0 0-7.511 5.098 25.296 25.296 0 0 1 .004-10.192m-.364 12.426a26.047 26.047 0 0 0 4.563 8.82 74.736 74.736 0 0 0-3.582 4.887 12.954 12.954 0 0 1-.98-13.707m1.054 15.254c.39.441.809.86 1.25 1.25a61.275 61.275 0 0 1-3.137 1.902 60.823 60.823 0 0 1 1.887-3.156m.512-.785a68.503 68.503 0 0 1 3.57-4.934 26.594 26.594 0 0 0 2.844 2.864 69.617 69.617 0 0 1-4.899 3.597 13.325 13.325 0 0 1-1.52-1.523m4.15-5.653a62.438 62.438 0 0 1 4-4.453 60.47 60.47 0 0 1 3.87-3.562 14.044 14.044 0 0 0 3.051 3.09 61.003 61.003 0 0 1-3.531 3.894 62.793 62.793 0 0 1-4.418 4.028 25.369 25.369 0 0 1-2.977-2.997m6.18-15.687c2.55.094 5.02.953 7.086 2.469a71.115 71.115 0 0 0-5.191 3.863 12.925 12.925 0 0 1-1.895-6.332m1.7-8.574a62.243 62.243 0 0 1-3.907-3.582 62.778 62.778 0 0 1-3.98-4.418 25.367 25.367 0 0 1 2.976-2.996 63.13 63.13 0 0 1 4.406 4 59.541 59.541 0 0 1 3.555 3.91 14.008 14.008 0 0 0-3.047 3.086m-4.922-12.168a75.668 75.668 0 0 0-4.855-3.61 12.76 12.76 0 0 1 13.574-1.004 25.807 25.807 0 0 0-8.719 4.614m.758-6.864a13.724 13.724 0 0 0-6.41 2.723A27.098 27.098 0 0 0 93.25.898ZM92.957 1.91a37.524 37.524 0 0 0 2.523 4.336 13.93 13.93 0 0 0-2.523 5.543Zm0 15.606a13.888 13.888 0 0 0 1.793 4.445 25.259 25.259 0 0 0-.004 12.172 13.89 13.89 0 0 0-1.789 4.437Zm0 26.777a13.895 13.895 0 0 0 2.555 5.59 35.719 35.719 0 0 0-2.555 4.433Zm.676 10.809a35.173 35.173 0 0 0 4.48-2.614 13.79 13.79 0 0 0 5.848 2.614Zm5.277-3.149a74.083 74.083 0 0 0 4.832-3.598 25.729 25.729 0 0 0 8.68 4.598 12.747 12.747 0 0 1-13.512-1m16.164 3.149h-6.215a13.76 13.76 0 0 0 4.809-1.825c.46.114.934.196 1.406.285Zm0-2.426c-.136-.028-.273-.047-.41-.078.145-.106.27-.235.41-.348Zm0-1.602c-.484.45-1.004.86-1.55 1.23a24.882 24.882 0 0 1-9.067-4.542 62.085 62.085 0 0 0 4.352-3.961 61.23 61.23 0 0 0 3.636-4.016c.828.516 1.711.942 2.63 1.27Zm0-10.984a12.721 12.721 0 0 1-2.043-1.008 67.328 67.328 0 0 0 2.043-2.68Zm0-5.238a69.72 69.72 0 0 1-2.8 3.71 12.93 12.93 0 0 1-2.926-2.964 70.048 70.048 0 0 1 5.445-4.04c.098.087.184.192.281.286Zm0-4.559c-.082.05-.152.098-.234.148a13.75 13.75 0 0 0-4.856-2.398 13.728 13.728 0 0 0 4.864-2.402c.078.05.148.093.226.14Zm0-6.047c-.094.09-.176.192-.273.277a68.315 68.315 0 0 1-5.442-4.02 12.958 12.958 0 0 1 2.922-2.956 66.298 66.298 0 0 1 2.793 3.691Zm0-4.543a69.26 69.26 0 0 0-2.043-2.668 12.404 12.404 0 0 1 2.043-1.008Zm-2.617-3.375a60.032 60.032 0 0 0-3.668-4.031 61.481 61.481 0 0 0-4.336-3.938 24.877 24.877 0 0 1 9.102-4.554c.535.367 1.043.77 1.52 1.207v10.047c-.915.328-1.794.754-2.618 1.27m2.617-12.493c-.129-.106-.25-.227-.383-.324.125-.028.254-.051.383-.075Zm0-1.281c-.46.086-.926.164-1.375.277a13.788 13.788 0 0 0-5.219-1.93h6.594Zm0 0" style="stroke:none;fill-rule:nonzero;fill:#03887e;fill-opacity:1"/><path d="M115.078 56h23.902V0h-23.902Zm.895-22.2 4.066 4.087-4.066 4.09Zm0 9.477 4.71-4.738 2.985 3-7.695 7.742Zm5.359-5.39 2.55-2.563v5.13Zm-3.055 17.215 6.063-6.098 5.93 6.098Zm13.27 0c-1.996-2.051-6.848-7.043-6.883-7.075l-.32-.328-7.36 7.403h-1.011v-4.52l8.343-8.39 12.844 12.91Zm6.543-.364-13.125-13.195 2.984-3.004 10.14 10.2ZM124.797 40.41v-5.039l2.504 2.516-2.504 2.52Zm13.293-21.46-2.344-2.36a.857.857 0 0 0 .004-.652l2.34-2.352Zm0-6.66-2.957 2.972a1.063 1.063 0 0 0-.383-.078c-.586 0-1.059.476-1.059 1.066 0 .59.473 1.066 1.059 1.066.121-.003.238-.027.352-.07l2.988 3v6.043l-2.238-2.25c.039-.11.066-.227.066-.344 0-.59-.473-1.066-1.059-1.066a1.067 1.067 0 0 0 0 2.133 1.06 1.06 0 0 0 .348-.07l2.883 2.894v7.336l-2.625 2.64a1.063 1.063 0 0 0-.383-.078c-.586 0-1.059.477-1.059 1.067a1.061 1.061 0 1 0 2.122 0 1.233 1.233 0 0 0-.063-.313l2.004-2.015v11.21l-9.496-9.546 5.797-5.82-.649-.653-5.793 5.824-2.984-3 6.2-6.23-.645-.653-5.723 5.75v-6.152l6.32-6.355-.644-.653-5.676 5.707v-6.027l6.27-6.305-.645-.652-6.102 6.133h-.004l-6.046-6.074-.645.648 6.258 6.293v6.023l-5.649-5.675-.644.652 6.293 6.324v6.156l-5.598-5.628-.648.652 6.031 6.062-2.984 3-4.711-4.738V5.621l2.66-2.676a.628.628 0 0 0 .148.063 1.057 1.057 0 0 0 1.254-.824 1.07 1.07 0 0 0-.82-1.266 1.063 1.063 0 0 0-1.254.828c-.035.176-.02.363.04.531l-2.032 2.043V.898h22.117v11.387Zm0 0" style="stroke:none;fill-rule:nonzero;fill:#cf3d28;fill-opacity:1"/><path d="M46.965 92.645c.465-.141.898-.364 1.281-.657.313-.25.61-.597.879-1.035.266-.433.398-1 .398-1.687 0-.75-.234-1.387-.695-1.895-.465-.508-1.086-.863-1.855-1.047a8.448 8.448 0 0 0-1.368-.172 28.324 28.324 0 0 0-1.667-.043c-.376 0-.735.004-1.07.016-.333.012-.622.023-.86.035-.254.008-.485.02-.692.031v5.493H.176v1.625h41.14v5.476h2.29v-5.773h.96l3.746 5.8h2.797l-4.27-6.128Zm-.875-.887a2.653 2.653 0 0 1-.5.183 3.143 3.143 0 0 1-.45.07 9.007 9.007 0 0 1-.64.016h-.371a3.38 3.38 0 0 1-.453-.039l-.07-.015v-4.746h.093c.043 0 .098-.008.164-.016.075 0 .157-.004.254-.008.106-.008.235-.008.395-.008.367 0 .715.032 1.027.102.32.07.602.2.844.379.238.183.43.433.562.742.13.305.196.691.196 1.152 0 .422-.055.778-.16 1.063-.106.281-.235.52-.383.703a1.503 1.503 0 0 1-.512.418ZM57.246 85.926c-.914 0-1.738.156-2.46.457a4.998 4.998 0 0 0-1.84 1.32c-.5.578-.891 1.293-1.157 2.125-.266.836-.402 1.797-.402 2.863 0 2.04.511 3.618 1.52 4.692C53.913 98.457 55.386 99 57.28 99c.914 0 1.739-.152 2.461-.457a4.905 4.905 0 0 0 1.828-1.313c.496-.57.883-1.28 1.149-2.113.265-.832.402-1.797.402-2.863 0-2.04-.508-3.621-1.512-4.7-1.004-1.081-2.472-1.628-4.367-1.628Zm2.55 10.324c-.542.84-1.394 1.266-2.53 1.266-1.141 0-2.024-.418-2.559-1.25-.527-.813-.797-2.079-.797-3.758 0-1.68.274-2.988.813-3.824.547-.844 1.402-1.274 2.543-1.274 1.136 0 2.02.422 2.547 1.258.523.82.785 2.09.785 3.77 0 1.68-.27 2.984-.801 3.812ZM70.242 91.844l-1.594-.926c-.523-.305-.921-.582-1.191-.82-.285-.258-.434-.602-.434-1.028 0-.36.082-.648.239-.86.156-.206.347-.366.578-.472.226-.11.469-.18.726-.21a5.688 5.688 0 0 1 1.723.04c.3.053.559.112.77.174.191.059.37.133.53.211l.497-1.488a4.49 4.49 0 0 0-.695-.211 12.26 12.26 0 0 0-1.024-.172A10.95 10.95 0 0 0 68.93 86c-1.32 0-2.348.305-3.051.895-.7.593-1.05 1.472-1.05 2.613 0 .433.062.816.183 1.137.12.324.285.613.488.855.207.25.438.473.691.66.258.192.524.367.793.52l1.883 1.129c.457.285.793.554 1.004.804.219.258.328.598.328 1.008 0 .688-.242 1.176-.726 1.45-.465.261-1.094.394-1.868.394-.425 0-.808-.031-1.14-.094a7.565 7.565 0 0 1-.844-.2 4.57 4.57 0 0 1-.621-.25l-.516 1.485c.254.094.547.18.864.254.308.07.691.137 1.129.195.441.063.96.094 1.546.094 1.438 0 2.551-.332 3.301-.988.746-.652 1.125-1.578 1.125-2.758 0-.8-.183-1.457-.55-1.953-.372-.504-.93-.977-1.665-1.402ZM82.54 91.73h-5.368v-5.585h-2.379V98.8h2.379V93.25h5.367v5.55h2.379V86.146h-2.379Zm0 0" style="stroke:none;fill-rule:nonzero;fill:#405378;fill-opacity:1"/><path d="M55.594 93.438h3.683l-1.843-2.223ZM138.824 91.68H97.891v-5.535h-1.746v9.402l-.641-1.04c-.043-.077-.094-.163-.149-.257l-.386-.613-4.723-7.492h-2.258v12.652h1.742V89.34l6.012 9.457h2.153v-5.492h40.93Zm0 0" style="stroke:none;fill-rule:nonzero;fill:#405378;fill-opacity:1"/></svg>